M48
;DRILL file {KiCad 4.0.2-4+6225~38~ubuntu15.10.1-stable} date Sat 05 Mar 2016 03:56:15 AM EET
;FORMAT={-:-/ absolute / inch / decimal}
FMAT,2
INCH,TZ
T1C0.028
T2C0.031
T3C0.040
%
G90
G05
M72
T1
X5.45Y-2.7
X5.5484Y-2.7
T2
X5.35Y-2.9
X5.35Y-3.
X5.35Y-3.1
X5.35Y-3.2
X5.35Y-3.3
X5.35Y-3.4
X5.35Y-3.5
X5.35Y-3.6
X5.35Y-3.7
X5.35Y-3.8
X5.35Y-3.9
X5.35Y-4.
X5.35Y-4.1
X5.35Y-4.2
X5.65Y-2.9
X5.65Y-3.
X5.65Y-3.1
X5.65Y-3.2
X5.65Y-3.3
X5.65Y-3.4
X5.65Y-3.5
X5.65Y-3.6
X5.65Y-3.7
X5.65Y-3.8
X5.65Y-3.9
X5.65Y-4.
X5.65Y-4.1
X5.65Y-4.2
T3
X5.15Y-2.9
X5.15Y-3.
X5.15Y-3.1
X5.15Y-3.2
X5.15Y-3.3
X5.15Y-3.4
X5.15Y-3.5
X5.15Y-3.6
X5.15Y-3.7
X5.15Y-3.8
X5.15Y-3.9
X5.15Y-4.
X5.15Y-4.1
X5.15Y-4.2
X5.3Y-4.5
X5.3Y-4.6
X5.4Y-4.5
X5.4Y-4.6
X5.5Y-4.5
X5.5Y-4.6
X5.6Y-4.5
X5.6Y-4.6
X5.7Y-4.5
X5.7Y-4.6
X5.85Y-2.9
X5.85Y-3.
X5.85Y-3.1
X5.85Y-3.2
X5.85Y-3.3
X5.85Y-3.4
X5.85Y-3.5
X5.85Y-3.6
X5.85Y-3.7
X5.85Y-3.8
X5.85Y-3.9
X5.85Y-4.
X5.85Y-4.1
X5.85Y-4.2
T0
M30
