G04 #@! TF.FileFunction,Legend,Bot*
%FSLAX46Y46*%
G04 Gerber Fmt 4.6, Leading zero omitted, Abs format (unit mm)*
G04 Created by KiCad (PCBNEW 4.0.2+e4-6225~38~ubuntu15.10.1-stable) date Thu 05 May 2016 10:58:19 PM EEST*
%MOMM*%
G01*
G04 APERTURE LIST*
%ADD10C,0.100000*%
%ADD11C,0.200000*%
%ADD12C,0.275000*%
%ADD13C,0.425000*%
%ADD14C,0.002000*%
G04 APERTURE END LIST*
D10*
X148016664Y-119696667D02*
X148349997Y-119696667D01*
X148349997Y-118996667D01*
X147783330Y-119696667D02*
X147783330Y-119230000D01*
X147783330Y-118996667D02*
X147816664Y-119030000D01*
X147783330Y-119063333D01*
X147749997Y-119030000D01*
X147783330Y-118996667D01*
X147783330Y-119063333D01*
X147149997Y-119663333D02*
X147216664Y-119696667D01*
X147349997Y-119696667D01*
X147416664Y-119663333D01*
X147449997Y-119630000D01*
X147483331Y-119563333D01*
X147483331Y-119363333D01*
X147449997Y-119296667D01*
X147416664Y-119263333D01*
X147349997Y-119230000D01*
X147216664Y-119230000D01*
X147149997Y-119263333D01*
X146583331Y-119663333D02*
X146649997Y-119696667D01*
X146783331Y-119696667D01*
X146849997Y-119663333D01*
X146883331Y-119596667D01*
X146883331Y-119330000D01*
X146849997Y-119263333D01*
X146783331Y-119230000D01*
X146649997Y-119230000D01*
X146583331Y-119263333D01*
X146549997Y-119330000D01*
X146549997Y-119396667D01*
X146883331Y-119463333D01*
X146249997Y-119230000D02*
X146249997Y-119696667D01*
X146249997Y-119296667D02*
X146216664Y-119263333D01*
X146149997Y-119230000D01*
X146049997Y-119230000D01*
X145983331Y-119263333D01*
X145949997Y-119330000D01*
X145949997Y-119696667D01*
X145649998Y-119663333D02*
X145583331Y-119696667D01*
X145449998Y-119696667D01*
X145383331Y-119663333D01*
X145349998Y-119596667D01*
X145349998Y-119563333D01*
X145383331Y-119496667D01*
X145449998Y-119463333D01*
X145549998Y-119463333D01*
X145616664Y-119430000D01*
X145649998Y-119363333D01*
X145649998Y-119330000D01*
X145616664Y-119263333D01*
X145549998Y-119230000D01*
X145449998Y-119230000D01*
X145383331Y-119263333D01*
X144783331Y-119663333D02*
X144849997Y-119696667D01*
X144983331Y-119696667D01*
X145049997Y-119663333D01*
X145083331Y-119596667D01*
X145083331Y-119330000D01*
X145049997Y-119263333D01*
X144983331Y-119230000D01*
X144849997Y-119230000D01*
X144783331Y-119263333D01*
X144749997Y-119330000D01*
X144749997Y-119396667D01*
X145083331Y-119463333D01*
X144149997Y-119696667D02*
X144149997Y-118996667D01*
X144149997Y-119663333D02*
X144216664Y-119696667D01*
X144349997Y-119696667D01*
X144416664Y-119663333D01*
X144449997Y-119630000D01*
X144483331Y-119563333D01*
X144483331Y-119363333D01*
X144449997Y-119296667D01*
X144416664Y-119263333D01*
X144349997Y-119230000D01*
X144216664Y-119230000D01*
X144149997Y-119263333D01*
X142983331Y-119230000D02*
X142983331Y-119696667D01*
X143283331Y-119230000D02*
X143283331Y-119596667D01*
X143249998Y-119663333D01*
X143183331Y-119696667D01*
X143083331Y-119696667D01*
X143016665Y-119663333D01*
X142983331Y-119630000D01*
X142649998Y-119230000D02*
X142649998Y-119696667D01*
X142649998Y-119296667D02*
X142616665Y-119263333D01*
X142549998Y-119230000D01*
X142449998Y-119230000D01*
X142383332Y-119263333D01*
X142349998Y-119330000D01*
X142349998Y-119696667D01*
X141716665Y-119696667D02*
X141716665Y-118996667D01*
X141716665Y-119663333D02*
X141783332Y-119696667D01*
X141916665Y-119696667D01*
X141983332Y-119663333D01*
X142016665Y-119630000D01*
X142049999Y-119563333D01*
X142049999Y-119363333D01*
X142016665Y-119296667D01*
X141983332Y-119263333D01*
X141916665Y-119230000D01*
X141783332Y-119230000D01*
X141716665Y-119263333D01*
X141116666Y-119663333D02*
X141183332Y-119696667D01*
X141316666Y-119696667D01*
X141383332Y-119663333D01*
X141416666Y-119596667D01*
X141416666Y-119330000D01*
X141383332Y-119263333D01*
X141316666Y-119230000D01*
X141183332Y-119230000D01*
X141116666Y-119263333D01*
X141083332Y-119330000D01*
X141083332Y-119396667D01*
X141416666Y-119463333D01*
X140783332Y-119696667D02*
X140783332Y-119230000D01*
X140783332Y-119363333D02*
X140749999Y-119296667D01*
X140716666Y-119263333D01*
X140649999Y-119230000D01*
X140583332Y-119230000D01*
X139416666Y-119630000D02*
X139450000Y-119663333D01*
X139550000Y-119696667D01*
X139616666Y-119696667D01*
X139716666Y-119663333D01*
X139783333Y-119596667D01*
X139816666Y-119530000D01*
X139850000Y-119396667D01*
X139850000Y-119296667D01*
X139816666Y-119163333D01*
X139783333Y-119096667D01*
X139716666Y-119030000D01*
X139616666Y-118996667D01*
X139550000Y-118996667D01*
X139450000Y-119030000D01*
X139416666Y-119063333D01*
X139116666Y-119330000D02*
X138883333Y-119330000D01*
X138783333Y-119696667D02*
X139116666Y-119696667D01*
X139116666Y-118996667D01*
X138783333Y-118996667D01*
X138083333Y-119696667D02*
X138316667Y-119363333D01*
X138483333Y-119696667D02*
X138483333Y-118996667D01*
X138216667Y-118996667D01*
X138150000Y-119030000D01*
X138116667Y-119063333D01*
X138083333Y-119130000D01*
X138083333Y-119230000D01*
X138116667Y-119296667D01*
X138150000Y-119330000D01*
X138216667Y-119363333D01*
X138483333Y-119363333D01*
X137783333Y-119696667D02*
X137783333Y-118996667D01*
X137383333Y-119696667D01*
X137383333Y-118996667D01*
X136383334Y-118996667D02*
X136250001Y-118996667D01*
X136183334Y-119030000D01*
X136116667Y-119096667D01*
X136083334Y-119230000D01*
X136083334Y-119463333D01*
X136116667Y-119596667D01*
X136183334Y-119663333D01*
X136250001Y-119696667D01*
X136383334Y-119696667D01*
X136450001Y-119663333D01*
X136516667Y-119596667D01*
X136550001Y-119463333D01*
X136550001Y-119230000D01*
X136516667Y-119096667D01*
X136450001Y-119030000D01*
X136383334Y-118996667D01*
X135783334Y-119696667D02*
X135783334Y-118996667D01*
X135783334Y-119330000D02*
X135383334Y-119330000D01*
X135383334Y-119696667D02*
X135383334Y-118996667D01*
X135050001Y-119696667D02*
X135050001Y-118996667D01*
X134883335Y-118996667D01*
X134783335Y-119030000D01*
X134716668Y-119096667D01*
X134683335Y-119163333D01*
X134650001Y-119296667D01*
X134650001Y-119396667D01*
X134683335Y-119530000D01*
X134716668Y-119596667D01*
X134783335Y-119663333D01*
X134883335Y-119696667D01*
X135050001Y-119696667D01*
X134016668Y-119696667D02*
X134350001Y-119696667D01*
X134350001Y-118996667D01*
X133316668Y-119230000D02*
X133150001Y-119696667D01*
X132983335Y-119230000D01*
X132716668Y-119630000D02*
X132683335Y-119663333D01*
X132716668Y-119696667D01*
X132750002Y-119663333D01*
X132716668Y-119630000D01*
X132716668Y-119696667D01*
X132016669Y-119696667D02*
X132416669Y-119696667D01*
X132216669Y-119696667D02*
X132216669Y-118996667D01*
X132283335Y-119096667D01*
X132350002Y-119163333D01*
X132416669Y-119196667D01*
X131716668Y-119630000D02*
X131683335Y-119663333D01*
X131716668Y-119696667D01*
X131750002Y-119663333D01*
X131716668Y-119630000D01*
X131716668Y-119696667D01*
X131416669Y-119063333D02*
X131383335Y-119030000D01*
X131316669Y-118996667D01*
X131150002Y-118996667D01*
X131083335Y-119030000D01*
X131050002Y-119063333D01*
X131016669Y-119130000D01*
X131016669Y-119196667D01*
X131050002Y-119296667D01*
X131450002Y-119696667D01*
X131016669Y-119696667D01*
D11*
X142061905Y-72332905D02*
X141985714Y-72332905D01*
X141909524Y-72371000D01*
X141871429Y-72409095D01*
X141833333Y-72485286D01*
X141795238Y-72637667D01*
X141795238Y-72828143D01*
X141833333Y-72980524D01*
X141871429Y-73056714D01*
X141909524Y-73094810D01*
X141985714Y-73132905D01*
X142061905Y-73132905D01*
X142138095Y-73094810D01*
X142176191Y-73056714D01*
X142214286Y-72980524D01*
X142252381Y-72828143D01*
X142252381Y-72637667D01*
X142214286Y-72485286D01*
X142176191Y-72409095D01*
X142138095Y-72371000D01*
X142061905Y-72332905D01*
X141071428Y-72332905D02*
X141452381Y-72332905D01*
X141490476Y-72713857D01*
X141452381Y-72675762D01*
X141376190Y-72637667D01*
X141185714Y-72637667D01*
X141109524Y-72675762D01*
X141071428Y-72713857D01*
X141033333Y-72790048D01*
X141033333Y-72980524D01*
X141071428Y-73056714D01*
X141109524Y-73094810D01*
X141185714Y-73132905D01*
X141376190Y-73132905D01*
X141452381Y-73094810D01*
X141490476Y-73056714D01*
X140119047Y-72294810D02*
X140804762Y-73323381D01*
X139890476Y-72409095D02*
X139852381Y-72371000D01*
X139776190Y-72332905D01*
X139585714Y-72332905D01*
X139509524Y-72371000D01*
X139471428Y-72409095D01*
X139433333Y-72485286D01*
X139433333Y-72561476D01*
X139471428Y-72675762D01*
X139928571Y-73132905D01*
X139433333Y-73132905D01*
X138938095Y-72332905D02*
X138861904Y-72332905D01*
X138785714Y-72371000D01*
X138747619Y-72409095D01*
X138709523Y-72485286D01*
X138671428Y-72637667D01*
X138671428Y-72828143D01*
X138709523Y-72980524D01*
X138747619Y-73056714D01*
X138785714Y-73094810D01*
X138861904Y-73132905D01*
X138938095Y-73132905D01*
X139014285Y-73094810D01*
X139052381Y-73056714D01*
X139090476Y-72980524D01*
X139128571Y-72828143D01*
X139128571Y-72637667D01*
X139090476Y-72485286D01*
X139052381Y-72409095D01*
X139014285Y-72371000D01*
X138938095Y-72332905D01*
X137909523Y-73132905D02*
X138366666Y-73132905D01*
X138138095Y-73132905D02*
X138138095Y-72332905D01*
X138214285Y-72447190D01*
X138290476Y-72523381D01*
X138366666Y-72561476D01*
X137223809Y-72332905D02*
X137376190Y-72332905D01*
X137452380Y-72371000D01*
X137490475Y-72409095D01*
X137566666Y-72523381D01*
X137604761Y-72675762D01*
X137604761Y-72980524D01*
X137566666Y-73056714D01*
X137528571Y-73094810D01*
X137452380Y-73132905D01*
X137299999Y-73132905D01*
X137223809Y-73094810D01*
X137185713Y-73056714D01*
X137147618Y-72980524D01*
X137147618Y-72790048D01*
X137185713Y-72713857D01*
X137223809Y-72675762D01*
X137299999Y-72637667D01*
X137452380Y-72637667D01*
X137528571Y-72675762D01*
X137566666Y-72713857D01*
X137604761Y-72790048D01*
D12*
X143310333Y-71617619D02*
X143676999Y-71093810D01*
X143938904Y-71617619D02*
X143938904Y-70517619D01*
X143519857Y-70517619D01*
X143415095Y-70570000D01*
X143362714Y-70622381D01*
X143310333Y-70727143D01*
X143310333Y-70884286D01*
X143362714Y-70989048D01*
X143415095Y-71041429D01*
X143519857Y-71093810D01*
X143938904Y-71093810D01*
X142419857Y-71565238D02*
X142524619Y-71617619D01*
X142734142Y-71617619D01*
X142838904Y-71565238D01*
X142891285Y-71460476D01*
X142891285Y-71041429D01*
X142838904Y-70936667D01*
X142734142Y-70884286D01*
X142524619Y-70884286D01*
X142419857Y-70936667D01*
X142367476Y-71041429D01*
X142367476Y-71146190D01*
X142891285Y-71250952D01*
X142000809Y-70884286D02*
X141738904Y-71617619D01*
X141477000Y-70884286D01*
X141057952Y-71617619D02*
X141057952Y-70884286D01*
X141057952Y-70517619D02*
X141110333Y-70570000D01*
X141057952Y-70622381D01*
X141005571Y-70570000D01*
X141057952Y-70517619D01*
X141057952Y-70622381D01*
X140586523Y-71565238D02*
X140481761Y-71617619D01*
X140272237Y-71617619D01*
X140167476Y-71565238D01*
X140115095Y-71460476D01*
X140115095Y-71408095D01*
X140167476Y-71303333D01*
X140272237Y-71250952D01*
X140429380Y-71250952D01*
X140534142Y-71198571D01*
X140586523Y-71093810D01*
X140586523Y-71041429D01*
X140534142Y-70936667D01*
X140429380Y-70884286D01*
X140272237Y-70884286D01*
X140167476Y-70936667D01*
X139643666Y-71617619D02*
X139643666Y-70884286D01*
X139643666Y-70517619D02*
X139696047Y-70570000D01*
X139643666Y-70622381D01*
X139591285Y-70570000D01*
X139643666Y-70517619D01*
X139643666Y-70622381D01*
X138962713Y-71617619D02*
X139067475Y-71565238D01*
X139119856Y-71512857D01*
X139172237Y-71408095D01*
X139172237Y-71093810D01*
X139119856Y-70989048D01*
X139067475Y-70936667D01*
X138962713Y-70884286D01*
X138805571Y-70884286D01*
X138700809Y-70936667D01*
X138648428Y-70989048D01*
X138596047Y-71093810D01*
X138596047Y-71408095D01*
X138648428Y-71512857D01*
X138700809Y-71565238D01*
X138805571Y-71617619D01*
X138962713Y-71617619D01*
X138124618Y-70884286D02*
X138124618Y-71617619D01*
X138124618Y-70989048D02*
X138072237Y-70936667D01*
X137967475Y-70884286D01*
X137810333Y-70884286D01*
X137705571Y-70936667D01*
X137653190Y-71041429D01*
X137653190Y-71617619D01*
X135924619Y-71041429D02*
X135767476Y-71093810D01*
X135715095Y-71146190D01*
X135662714Y-71250952D01*
X135662714Y-71408095D01*
X135715095Y-71512857D01*
X135767476Y-71565238D01*
X135872238Y-71617619D01*
X136291285Y-71617619D01*
X136291285Y-70517619D01*
X135924619Y-70517619D01*
X135819857Y-70570000D01*
X135767476Y-70622381D01*
X135715095Y-70727143D01*
X135715095Y-70831905D01*
X135767476Y-70936667D01*
X135819857Y-70989048D01*
X135924619Y-71041429D01*
X136291285Y-71041429D01*
D13*
X139416667Y-103816190D02*
X139416667Y-103006667D01*
X138930952Y-103978095D02*
X140630952Y-103411429D01*
X138930952Y-102844762D01*
X140630952Y-102520952D02*
X140630952Y-101549524D01*
X138930952Y-102035238D02*
X140630952Y-102035238D01*
X138930952Y-100982857D02*
X140064286Y-100982857D01*
X139902381Y-100982857D02*
X139983333Y-100901905D01*
X140064286Y-100740000D01*
X140064286Y-100497143D01*
X139983333Y-100335238D01*
X139821429Y-100254286D01*
X138930952Y-100254286D01*
X139821429Y-100254286D02*
X139983333Y-100173333D01*
X140064286Y-100011429D01*
X140064286Y-99768571D01*
X139983333Y-99606667D01*
X139821429Y-99525714D01*
X138930952Y-99525714D01*
X139011905Y-98068571D02*
X138930952Y-98230476D01*
X138930952Y-98554285D01*
X139011905Y-98716190D01*
X139173810Y-98797142D01*
X139821429Y-98797142D01*
X139983333Y-98716190D01*
X140064286Y-98554285D01*
X140064286Y-98230476D01*
X139983333Y-98068571D01*
X139821429Y-97987619D01*
X139659524Y-97987619D01*
X139497619Y-98797142D01*
X140064286Y-96530476D02*
X138688095Y-96530476D01*
X138526190Y-96611428D01*
X138445238Y-96692380D01*
X138364286Y-96854285D01*
X138364286Y-97097142D01*
X138445238Y-97259047D01*
X139011905Y-96530476D02*
X138930952Y-96692380D01*
X138930952Y-97016190D01*
X139011905Y-97178095D01*
X139092857Y-97259047D01*
X139254762Y-97339999D01*
X139740476Y-97339999D01*
X139902381Y-97259047D01*
X139983333Y-97178095D01*
X140064286Y-97016190D01*
X140064286Y-96692380D01*
X139983333Y-96530476D01*
X138930952Y-94992381D02*
X139821429Y-94992381D01*
X139983333Y-95073333D01*
X140064286Y-95235238D01*
X140064286Y-95559047D01*
X139983333Y-95720952D01*
X139011905Y-94992381D02*
X138930952Y-95154285D01*
X138930952Y-95559047D01*
X139011905Y-95720952D01*
X139173810Y-95801904D01*
X139335714Y-95801904D01*
X139497619Y-95720952D01*
X139578571Y-95559047D01*
X139578571Y-95154285D01*
X139659524Y-94992381D01*
X140630952Y-94344762D02*
X138930952Y-93211429D01*
X140630952Y-93211429D02*
X138930952Y-94344762D01*
X139902381Y-92320952D02*
X139983333Y-92482857D01*
X140064286Y-92563809D01*
X140226190Y-92644761D01*
X140307143Y-92644761D01*
X140469048Y-92563809D01*
X140550000Y-92482857D01*
X140630952Y-92320952D01*
X140630952Y-91997142D01*
X140550000Y-91835238D01*
X140469048Y-91754285D01*
X140307143Y-91673333D01*
X140226190Y-91673333D01*
X140064286Y-91754285D01*
X139983333Y-91835238D01*
X139902381Y-91997142D01*
X139902381Y-92320952D01*
X139821429Y-92482857D01*
X139740476Y-92563809D01*
X139578571Y-92644761D01*
X139254762Y-92644761D01*
X139092857Y-92563809D01*
X139011905Y-92482857D01*
X138930952Y-92320952D01*
X138930952Y-91997142D01*
X139011905Y-91835238D01*
X139092857Y-91754285D01*
X139254762Y-91673333D01*
X139578571Y-91673333D01*
X139740476Y-91754285D01*
X139821429Y-91835238D01*
X139902381Y-91997142D01*
X138930952Y-89649523D02*
X140630952Y-89649523D01*
X140630952Y-89001904D01*
X140550000Y-88839999D01*
X140469048Y-88759047D01*
X140307143Y-88678095D01*
X140064286Y-88678095D01*
X139902381Y-88759047D01*
X139821429Y-88839999D01*
X139740476Y-89001904D01*
X139740476Y-89649523D01*
X138930952Y-87949523D02*
X140064286Y-87949523D01*
X139740476Y-87949523D02*
X139902381Y-87868571D01*
X139983333Y-87787618D01*
X140064286Y-87625714D01*
X140064286Y-87463809D01*
X138930952Y-86654285D02*
X139011905Y-86816190D01*
X139092857Y-86897142D01*
X139254762Y-86978094D01*
X139740476Y-86978094D01*
X139902381Y-86897142D01*
X139983333Y-86816190D01*
X140064286Y-86654285D01*
X140064286Y-86411428D01*
X139983333Y-86249523D01*
X139902381Y-86168571D01*
X139740476Y-86087618D01*
X139254762Y-86087618D01*
X139092857Y-86168571D01*
X139011905Y-86249523D01*
X138930952Y-86411428D01*
X138930952Y-86654285D01*
X140064286Y-85601904D02*
X140064286Y-84954285D01*
X140630952Y-85359047D02*
X139173810Y-85359047D01*
X139011905Y-85278095D01*
X138930952Y-85116190D01*
X138930952Y-84954285D01*
X138930952Y-84144761D02*
X139011905Y-84306666D01*
X139092857Y-84387618D01*
X139254762Y-84468570D01*
X139740476Y-84468570D01*
X139902381Y-84387618D01*
X139983333Y-84306666D01*
X140064286Y-84144761D01*
X140064286Y-83901904D01*
X139983333Y-83739999D01*
X139902381Y-83659047D01*
X139740476Y-83578094D01*
X139254762Y-83578094D01*
X139092857Y-83659047D01*
X139011905Y-83739999D01*
X138930952Y-83901904D01*
X138930952Y-84144761D01*
X138930952Y-82849523D02*
X140630952Y-82849523D01*
X139983333Y-82849523D02*
X140064286Y-82687618D01*
X140064286Y-82363809D01*
X139983333Y-82201904D01*
X139902381Y-82120952D01*
X139740476Y-82039999D01*
X139254762Y-82039999D01*
X139092857Y-82120952D01*
X139011905Y-82201904D01*
X138930952Y-82363809D01*
X138930952Y-82687618D01*
X139011905Y-82849523D01*
X138930952Y-81068571D02*
X139011905Y-81230476D01*
X139092857Y-81311428D01*
X139254762Y-81392380D01*
X139740476Y-81392380D01*
X139902381Y-81311428D01*
X139983333Y-81230476D01*
X140064286Y-81068571D01*
X140064286Y-80825714D01*
X139983333Y-80663809D01*
X139902381Y-80582857D01*
X139740476Y-80501904D01*
X139254762Y-80501904D01*
X139092857Y-80582857D01*
X139011905Y-80663809D01*
X138930952Y-80825714D01*
X138930952Y-81068571D01*
X138930952Y-79044762D02*
X139821429Y-79044762D01*
X139983333Y-79125714D01*
X140064286Y-79287619D01*
X140064286Y-79611428D01*
X139983333Y-79773333D01*
X139011905Y-79044762D02*
X138930952Y-79206666D01*
X138930952Y-79611428D01*
X139011905Y-79773333D01*
X139173810Y-79854285D01*
X139335714Y-79854285D01*
X139497619Y-79773333D01*
X139578571Y-79611428D01*
X139578571Y-79206666D01*
X139659524Y-79044762D01*
X138930952Y-78235238D02*
X140064286Y-78235238D01*
X139740476Y-78235238D02*
X139902381Y-78154286D01*
X139983333Y-78073333D01*
X140064286Y-77911429D01*
X140064286Y-77749524D01*
X138930952Y-76454286D02*
X140630952Y-76454286D01*
X139011905Y-76454286D02*
X138930952Y-76616190D01*
X138930952Y-76940000D01*
X139011905Y-77101905D01*
X139092857Y-77182857D01*
X139254762Y-77263809D01*
X139740476Y-77263809D01*
X139902381Y-77182857D01*
X139983333Y-77101905D01*
X140064286Y-76940000D01*
X140064286Y-76616190D01*
X139983333Y-76454286D01*
D14*
G36*
X139059530Y-106584328D02*
X139029902Y-106737449D01*
X139001746Y-106873644D01*
X138976883Y-106984818D01*
X138957134Y-107062872D01*
X138944320Y-107099710D01*
X138943357Y-107100954D01*
X138911496Y-107119112D01*
X138842900Y-107150930D01*
X138748554Y-107191918D01*
X138639444Y-107237586D01*
X138526556Y-107283446D01*
X138420876Y-107325007D01*
X138333389Y-107357780D01*
X138275080Y-107377276D01*
X138258744Y-107380734D01*
X138229779Y-107366887D01*
X138166014Y-107328371D01*
X138074526Y-107269723D01*
X137962392Y-107195481D01*
X137836686Y-107110180D01*
X137835807Y-107109576D01*
X137709344Y-107023290D01*
X137595925Y-106946896D01*
X137502796Y-106885195D01*
X137437208Y-106842991D01*
X137406500Y-106825122D01*
X137378436Y-106838137D01*
X137322328Y-106881903D01*
X137244897Y-106949781D01*
X137152862Y-107035132D01*
X137052944Y-107131314D01*
X136951863Y-107231688D01*
X136856338Y-107329613D01*
X136773089Y-107418451D01*
X136708836Y-107491560D01*
X136670299Y-107542301D01*
X136662211Y-107560565D01*
X136676066Y-107593566D01*
X136714584Y-107661047D01*
X136773195Y-107755627D01*
X136847330Y-107869929D01*
X136930251Y-107993397D01*
X137015000Y-108119209D01*
X137088726Y-108231794D01*
X137146880Y-108323950D01*
X137184917Y-108388472D01*
X137198292Y-108417988D01*
X137188467Y-108452578D01*
X137162034Y-108522968D01*
X137123556Y-108618500D01*
X137077597Y-108728518D01*
X137028720Y-108842363D01*
X136981487Y-108949377D01*
X136940462Y-109038902D01*
X136910209Y-109100280D01*
X136896938Y-109121846D01*
X136869085Y-109130568D01*
X136800478Y-109146805D01*
X136700544Y-109168665D01*
X136578712Y-109194253D01*
X136444408Y-109221678D01*
X136307061Y-109249047D01*
X136176097Y-109274467D01*
X136060944Y-109296045D01*
X135971029Y-109311889D01*
X135915780Y-109320105D01*
X135905806Y-109320834D01*
X135900459Y-109344820D01*
X135896877Y-109410685D01*
X135894921Y-109509287D01*
X135894455Y-109631484D01*
X135895338Y-109768135D01*
X135897434Y-109910098D01*
X135900605Y-110048233D01*
X135904712Y-110173397D01*
X135909617Y-110276450D01*
X135915182Y-110348249D01*
X135921269Y-110379654D01*
X135921806Y-110380167D01*
X135954088Y-110389760D01*
X136028029Y-110406709D01*
X136135066Y-110429207D01*
X136266631Y-110455447D01*
X136395964Y-110480210D01*
X136545010Y-110509810D01*
X136676304Y-110538907D01*
X136781336Y-110565384D01*
X136851598Y-110587123D01*
X136877387Y-110600024D01*
X136898275Y-110635981D01*
X136932330Y-110708727D01*
X136975176Y-110807408D01*
X137022439Y-110921169D01*
X137069744Y-111039157D01*
X137112716Y-111150517D01*
X137146979Y-111244395D01*
X137168160Y-111309936D01*
X137172859Y-111333089D01*
X137158916Y-111364255D01*
X137120301Y-111429693D01*
X137061738Y-111521933D01*
X136987951Y-111633503D01*
X136917487Y-111736948D01*
X136834402Y-111859735D01*
X136762624Y-111970326D01*
X136706903Y-112061032D01*
X136671987Y-112124166D01*
X136662211Y-112150161D01*
X136679420Y-112178816D01*
X136726563Y-112235962D01*
X136796914Y-112314681D01*
X136883747Y-112408057D01*
X136980335Y-112509174D01*
X137079953Y-112611116D01*
X137175874Y-112706965D01*
X137261372Y-112789807D01*
X137329722Y-112852724D01*
X137374196Y-112888801D01*
X137386281Y-112894703D01*
X137413448Y-112880926D01*
X137475151Y-112842779D01*
X137564009Y-112785037D01*
X137672638Y-112712477D01*
X137762237Y-112651484D01*
X137882691Y-112569568D01*
X137990641Y-112497487D01*
X138078163Y-112440430D01*
X138137334Y-112403582D01*
X138157869Y-112392503D01*
X138199928Y-112395412D01*
X138272684Y-112417964D01*
X138361870Y-112455625D01*
X138372563Y-112460734D01*
X138460835Y-112499589D01*
X138534158Y-112524898D01*
X138578435Y-112531915D01*
X138581633Y-112531122D01*
X138596948Y-112506305D01*
X138628944Y-112440864D01*
X138674813Y-112341360D01*
X138731743Y-112214358D01*
X138796925Y-112066420D01*
X138867549Y-111904109D01*
X138940804Y-111733990D01*
X139013882Y-111562624D01*
X139083971Y-111396574D01*
X139148262Y-111242405D01*
X139203945Y-111106679D01*
X139248210Y-110995959D01*
X139278246Y-110916808D01*
X139291244Y-110875789D01*
X139291558Y-110873006D01*
X139272435Y-110851774D01*
X139221370Y-110808510D01*
X139147823Y-110751060D01*
X139113852Y-110725586D01*
X138935944Y-110565800D01*
X138800517Y-110385344D01*
X138707986Y-110189978D01*
X138658767Y-109985461D01*
X138653274Y-109777552D01*
X138691922Y-109572010D01*
X138775127Y-109374595D01*
X138903304Y-109191065D01*
X138996314Y-109095180D01*
X139172364Y-108964241D01*
X139361478Y-108878272D01*
X139557959Y-108834760D01*
X139756112Y-108831193D01*
X139950240Y-108865056D01*
X140134649Y-108933836D01*
X140303642Y-109035020D01*
X140451524Y-109166094D01*
X140572599Y-109324546D01*
X140661171Y-109507861D01*
X140711544Y-109713526D01*
X140721106Y-109856278D01*
X140696973Y-110084942D01*
X140625070Y-110296294D01*
X140506135Y-110488937D01*
X140340909Y-110661474D01*
X140260621Y-110725586D01*
X140180668Y-110786545D01*
X140119373Y-110836490D01*
X140086195Y-110867576D01*
X140082915Y-110873006D01*
X140092627Y-110906796D01*
X140119889Y-110979854D01*
X140161888Y-111085614D01*
X140215813Y-111217514D01*
X140278849Y-111368991D01*
X140348186Y-111533481D01*
X140421011Y-111704421D01*
X140494511Y-111875249D01*
X140565874Y-112039399D01*
X140632288Y-112190310D01*
X140690939Y-112321418D01*
X140739017Y-112426160D01*
X140773708Y-112497973D01*
X140792199Y-112530292D01*
X140793544Y-112531392D01*
X140832254Y-112527219D01*
X140902373Y-112503686D01*
X140990304Y-112465543D01*
X141011532Y-112455245D01*
X141193367Y-112365223D01*
X141580328Y-112629963D01*
X141704404Y-112714073D01*
X141814390Y-112787161D01*
X141903243Y-112844665D01*
X141963921Y-112882024D01*
X141989112Y-112894703D01*
X142013092Y-112877434D01*
X142067010Y-112829321D01*
X142144990Y-112755907D01*
X142241156Y-112662735D01*
X142349630Y-112555347D01*
X142361598Y-112543368D01*
X142470297Y-112432356D01*
X142565285Y-112331324D01*
X142640976Y-112246547D01*
X142691782Y-112184300D01*
X142712117Y-112150859D01*
X142712261Y-112149488D01*
X142698301Y-112115409D01*
X142659586Y-112047334D01*
X142600863Y-111952935D01*
X142526880Y-111839885D01*
X142456985Y-111736948D01*
X142374043Y-111614894D01*
X142302348Y-111505881D01*
X142246622Y-111417379D01*
X142211591Y-111356859D01*
X142201614Y-111333089D01*
X142211088Y-111293716D01*
X142236695Y-111218442D01*
X142274059Y-111118120D01*
X142318806Y-111003606D01*
X142366560Y-110885752D01*
X142412947Y-110775415D01*
X142453591Y-110683446D01*
X142484118Y-110620702D01*
X142497086Y-110600024D01*
X142532128Y-110583809D01*
X142608984Y-110561103D01*
X142719146Y-110534024D01*
X142854104Y-110504689D01*
X142978509Y-110480210D01*
X143124580Y-110452173D01*
X143253663Y-110426285D01*
X143357194Y-110404355D01*
X143426605Y-110388191D01*
X143452666Y-110380167D01*
X143458791Y-110352619D01*
X143464406Y-110283899D01*
X143469373Y-110183149D01*
X143473553Y-110059509D01*
X143476808Y-109922121D01*
X143479001Y-109780128D01*
X143479993Y-109642669D01*
X143479646Y-109518888D01*
X143477823Y-109417924D01*
X143474385Y-109348920D01*
X143469193Y-109321018D01*
X143468666Y-109320834D01*
X143429137Y-109316028D01*
X143351344Y-109302873D01*
X143244713Y-109283260D01*
X143118672Y-109259084D01*
X142982649Y-109232236D01*
X142846071Y-109204609D01*
X142718365Y-109178096D01*
X142608960Y-109154590D01*
X142527281Y-109135983D01*
X142482758Y-109124168D01*
X142477534Y-109121846D01*
X142458993Y-109090182D01*
X142426083Y-109021966D01*
X142383366Y-108927856D01*
X142335405Y-108818510D01*
X142286764Y-108704586D01*
X142242006Y-108596742D01*
X142205694Y-108505635D01*
X142182391Y-108441924D01*
X142176181Y-108417988D01*
X142189993Y-108387675D01*
X142228396Y-108322642D01*
X142286843Y-108230093D01*
X142360786Y-108117233D01*
X142444221Y-107993397D01*
X142529098Y-107866966D01*
X142602909Y-107753058D01*
X142661085Y-107659050D01*
X142699056Y-107592322D01*
X142712261Y-107560565D01*
X142694894Y-107528688D01*
X142647272Y-107469958D01*
X142576116Y-107391015D01*
X142488145Y-107298499D01*
X142390080Y-107199051D01*
X142288639Y-107099310D01*
X142190544Y-107005916D01*
X142102513Y-106925510D01*
X142031268Y-106864731D01*
X141983527Y-106830219D01*
X141967972Y-106825122D01*
X141936853Y-106843248D01*
X141871006Y-106885634D01*
X141777679Y-106947476D01*
X141664121Y-107023973D01*
X141538666Y-107109576D01*
X141412893Y-107194936D01*
X141300643Y-107269269D01*
X141208991Y-107328037D01*
X141145015Y-107366704D01*
X141115792Y-107380733D01*
X141115729Y-107380734D01*
X141079984Y-107371263D01*
X141008527Y-107345846D01*
X140912343Y-107308970D01*
X140802418Y-107265126D01*
X140689737Y-107218803D01*
X140585287Y-107174491D01*
X140500052Y-107136678D01*
X140445018Y-107109854D01*
X140431115Y-107100954D01*
X140419232Y-107069471D01*
X140400201Y-106995824D01*
X140375843Y-106888109D01*
X140347978Y-106754424D01*
X140318428Y-106602867D01*
X140314942Y-106584328D01*
X140222655Y-106091588D01*
X139151817Y-106091588D01*
X139059530Y-106584328D01*
X139059530Y-106584328D01*
G37*
X139059530Y-106584328D02*
X139029902Y-106737449D01*
X139001746Y-106873644D01*
X138976883Y-106984818D01*
X138957134Y-107062872D01*
X138944320Y-107099710D01*
X138943357Y-107100954D01*
X138911496Y-107119112D01*
X138842900Y-107150930D01*
X138748554Y-107191918D01*
X138639444Y-107237586D01*
X138526556Y-107283446D01*
X138420876Y-107325007D01*
X138333389Y-107357780D01*
X138275080Y-107377276D01*
X138258744Y-107380734D01*
X138229779Y-107366887D01*
X138166014Y-107328371D01*
X138074526Y-107269723D01*
X137962392Y-107195481D01*
X137836686Y-107110180D01*
X137835807Y-107109576D01*
X137709344Y-107023290D01*
X137595925Y-106946896D01*
X137502796Y-106885195D01*
X137437208Y-106842991D01*
X137406500Y-106825122D01*
X137378436Y-106838137D01*
X137322328Y-106881903D01*
X137244897Y-106949781D01*
X137152862Y-107035132D01*
X137052944Y-107131314D01*
X136951863Y-107231688D01*
X136856338Y-107329613D01*
X136773089Y-107418451D01*
X136708836Y-107491560D01*
X136670299Y-107542301D01*
X136662211Y-107560565D01*
X136676066Y-107593566D01*
X136714584Y-107661047D01*
X136773195Y-107755627D01*
X136847330Y-107869929D01*
X136930251Y-107993397D01*
X137015000Y-108119209D01*
X137088726Y-108231794D01*
X137146880Y-108323950D01*
X137184917Y-108388472D01*
X137198292Y-108417988D01*
X137188467Y-108452578D01*
X137162034Y-108522968D01*
X137123556Y-108618500D01*
X137077597Y-108728518D01*
X137028720Y-108842363D01*
X136981487Y-108949377D01*
X136940462Y-109038902D01*
X136910209Y-109100280D01*
X136896938Y-109121846D01*
X136869085Y-109130568D01*
X136800478Y-109146805D01*
X136700544Y-109168665D01*
X136578712Y-109194253D01*
X136444408Y-109221678D01*
X136307061Y-109249047D01*
X136176097Y-109274467D01*
X136060944Y-109296045D01*
X135971029Y-109311889D01*
X135915780Y-109320105D01*
X135905806Y-109320834D01*
X135900459Y-109344820D01*
X135896877Y-109410685D01*
X135894921Y-109509287D01*
X135894455Y-109631484D01*
X135895338Y-109768135D01*
X135897434Y-109910098D01*
X135900605Y-110048233D01*
X135904712Y-110173397D01*
X135909617Y-110276450D01*
X135915182Y-110348249D01*
X135921269Y-110379654D01*
X135921806Y-110380167D01*
X135954088Y-110389760D01*
X136028029Y-110406709D01*
X136135066Y-110429207D01*
X136266631Y-110455447D01*
X136395964Y-110480210D01*
X136545010Y-110509810D01*
X136676304Y-110538907D01*
X136781336Y-110565384D01*
X136851598Y-110587123D01*
X136877387Y-110600024D01*
X136898275Y-110635981D01*
X136932330Y-110708727D01*
X136975176Y-110807408D01*
X137022439Y-110921169D01*
X137069744Y-111039157D01*
X137112716Y-111150517D01*
X137146979Y-111244395D01*
X137168160Y-111309936D01*
X137172859Y-111333089D01*
X137158916Y-111364255D01*
X137120301Y-111429693D01*
X137061738Y-111521933D01*
X136987951Y-111633503D01*
X136917487Y-111736948D01*
X136834402Y-111859735D01*
X136762624Y-111970326D01*
X136706903Y-112061032D01*
X136671987Y-112124166D01*
X136662211Y-112150161D01*
X136679420Y-112178816D01*
X136726563Y-112235962D01*
X136796914Y-112314681D01*
X136883747Y-112408057D01*
X136980335Y-112509174D01*
X137079953Y-112611116D01*
X137175874Y-112706965D01*
X137261372Y-112789807D01*
X137329722Y-112852724D01*
X137374196Y-112888801D01*
X137386281Y-112894703D01*
X137413448Y-112880926D01*
X137475151Y-112842779D01*
X137564009Y-112785037D01*
X137672638Y-112712477D01*
X137762237Y-112651484D01*
X137882691Y-112569568D01*
X137990641Y-112497487D01*
X138078163Y-112440430D01*
X138137334Y-112403582D01*
X138157869Y-112392503D01*
X138199928Y-112395412D01*
X138272684Y-112417964D01*
X138361870Y-112455625D01*
X138372563Y-112460734D01*
X138460835Y-112499589D01*
X138534158Y-112524898D01*
X138578435Y-112531915D01*
X138581633Y-112531122D01*
X138596948Y-112506305D01*
X138628944Y-112440864D01*
X138674813Y-112341360D01*
X138731743Y-112214358D01*
X138796925Y-112066420D01*
X138867549Y-111904109D01*
X138940804Y-111733990D01*
X139013882Y-111562624D01*
X139083971Y-111396574D01*
X139148262Y-111242405D01*
X139203945Y-111106679D01*
X139248210Y-110995959D01*
X139278246Y-110916808D01*
X139291244Y-110875789D01*
X139291558Y-110873006D01*
X139272435Y-110851774D01*
X139221370Y-110808510D01*
X139147823Y-110751060D01*
X139113852Y-110725586D01*
X138935944Y-110565800D01*
X138800517Y-110385344D01*
X138707986Y-110189978D01*
X138658767Y-109985461D01*
X138653274Y-109777552D01*
X138691922Y-109572010D01*
X138775127Y-109374595D01*
X138903304Y-109191065D01*
X138996314Y-109095180D01*
X139172364Y-108964241D01*
X139361478Y-108878272D01*
X139557959Y-108834760D01*
X139756112Y-108831193D01*
X139950240Y-108865056D01*
X140134649Y-108933836D01*
X140303642Y-109035020D01*
X140451524Y-109166094D01*
X140572599Y-109324546D01*
X140661171Y-109507861D01*
X140711544Y-109713526D01*
X140721106Y-109856278D01*
X140696973Y-110084942D01*
X140625070Y-110296294D01*
X140506135Y-110488937D01*
X140340909Y-110661474D01*
X140260621Y-110725586D01*
X140180668Y-110786545D01*
X140119373Y-110836490D01*
X140086195Y-110867576D01*
X140082915Y-110873006D01*
X140092627Y-110906796D01*
X140119889Y-110979854D01*
X140161888Y-111085614D01*
X140215813Y-111217514D01*
X140278849Y-111368991D01*
X140348186Y-111533481D01*
X140421011Y-111704421D01*
X140494511Y-111875249D01*
X140565874Y-112039399D01*
X140632288Y-112190310D01*
X140690939Y-112321418D01*
X140739017Y-112426160D01*
X140773708Y-112497973D01*
X140792199Y-112530292D01*
X140793544Y-112531392D01*
X140832254Y-112527219D01*
X140902373Y-112503686D01*
X140990304Y-112465543D01*
X141011532Y-112455245D01*
X141193367Y-112365223D01*
X141580328Y-112629963D01*
X141704404Y-112714073D01*
X141814390Y-112787161D01*
X141903243Y-112844665D01*
X141963921Y-112882024D01*
X141989112Y-112894703D01*
X142013092Y-112877434D01*
X142067010Y-112829321D01*
X142144990Y-112755907D01*
X142241156Y-112662735D01*
X142349630Y-112555347D01*
X142361598Y-112543368D01*
X142470297Y-112432356D01*
X142565285Y-112331324D01*
X142640976Y-112246547D01*
X142691782Y-112184300D01*
X142712117Y-112150859D01*
X142712261Y-112149488D01*
X142698301Y-112115409D01*
X142659586Y-112047334D01*
X142600863Y-111952935D01*
X142526880Y-111839885D01*
X142456985Y-111736948D01*
X142374043Y-111614894D01*
X142302348Y-111505881D01*
X142246622Y-111417379D01*
X142211591Y-111356859D01*
X142201614Y-111333089D01*
X142211088Y-111293716D01*
X142236695Y-111218442D01*
X142274059Y-111118120D01*
X142318806Y-111003606D01*
X142366560Y-110885752D01*
X142412947Y-110775415D01*
X142453591Y-110683446D01*
X142484118Y-110620702D01*
X142497086Y-110600024D01*
X142532128Y-110583809D01*
X142608984Y-110561103D01*
X142719146Y-110534024D01*
X142854104Y-110504689D01*
X142978509Y-110480210D01*
X143124580Y-110452173D01*
X143253663Y-110426285D01*
X143357194Y-110404355D01*
X143426605Y-110388191D01*
X143452666Y-110380167D01*
X143458791Y-110352619D01*
X143464406Y-110283899D01*
X143469373Y-110183149D01*
X143473553Y-110059509D01*
X143476808Y-109922121D01*
X143479001Y-109780128D01*
X143479993Y-109642669D01*
X143479646Y-109518888D01*
X143477823Y-109417924D01*
X143474385Y-109348920D01*
X143469193Y-109321018D01*
X143468666Y-109320834D01*
X143429137Y-109316028D01*
X143351344Y-109302873D01*
X143244713Y-109283260D01*
X143118672Y-109259084D01*
X142982649Y-109232236D01*
X142846071Y-109204609D01*
X142718365Y-109178096D01*
X142608960Y-109154590D01*
X142527281Y-109135983D01*
X142482758Y-109124168D01*
X142477534Y-109121846D01*
X142458993Y-109090182D01*
X142426083Y-109021966D01*
X142383366Y-108927856D01*
X142335405Y-108818510D01*
X142286764Y-108704586D01*
X142242006Y-108596742D01*
X142205694Y-108505635D01*
X142182391Y-108441924D01*
X142176181Y-108417988D01*
X142189993Y-108387675D01*
X142228396Y-108322642D01*
X142286843Y-108230093D01*
X142360786Y-108117233D01*
X142444221Y-107993397D01*
X142529098Y-107866966D01*
X142602909Y-107753058D01*
X142661085Y-107659050D01*
X142699056Y-107592322D01*
X142712261Y-107560565D01*
X142694894Y-107528688D01*
X142647272Y-107469958D01*
X142576116Y-107391015D01*
X142488145Y-107298499D01*
X142390080Y-107199051D01*
X142288639Y-107099310D01*
X142190544Y-107005916D01*
X142102513Y-106925510D01*
X142031268Y-106864731D01*
X141983527Y-106830219D01*
X141967972Y-106825122D01*
X141936853Y-106843248D01*
X141871006Y-106885634D01*
X141777679Y-106947476D01*
X141664121Y-107023973D01*
X141538666Y-107109576D01*
X141412893Y-107194936D01*
X141300643Y-107269269D01*
X141208991Y-107328037D01*
X141145015Y-107366704D01*
X141115792Y-107380733D01*
X141115729Y-107380734D01*
X141079984Y-107371263D01*
X141008527Y-107345846D01*
X140912343Y-107308970D01*
X140802418Y-107265126D01*
X140689737Y-107218803D01*
X140585287Y-107174491D01*
X140500052Y-107136678D01*
X140445018Y-107109854D01*
X140431115Y-107100954D01*
X140419232Y-107069471D01*
X140400201Y-106995824D01*
X140375843Y-106888109D01*
X140347978Y-106754424D01*
X140318428Y-106602867D01*
X140314942Y-106584328D01*
X140222655Y-106091588D01*
X139151817Y-106091588D01*
X139059530Y-106584328D01*
M02*
