G04 #@! TF.FileFunction,Legend,Top*
%FSLAX46Y46*%
G04 Gerber Fmt 4.6, Leading zero omitted, Abs format (unit mm)*
G04 Created by KiCad (PCBNEW 4.0.2+e4-6225~38~ubuntu15.10.1-stable) date Thu 05 May 2016 10:58:19 PM EEST*
%MOMM*%
G01*
G04 APERTURE LIST*
%ADD10C,0.100000*%
%ADD11C,0.200000*%
%ADD12C,0.500000*%
%ADD13C,0.150000*%
G04 APERTURE END LIST*
D10*
D11*
X133159500Y-71247000D02*
G75*
G03X133159500Y-71247000I-63500J0D01*
G01*
X133237990Y-71247000D02*
G75*
G03X133237990Y-71247000I-141990J0D01*
G01*
X145954786Y-68649905D02*
X145954786Y-69221333D01*
X145916690Y-69335619D01*
X145840500Y-69411810D01*
X145726214Y-69449905D01*
X145650024Y-69449905D01*
X146335738Y-69449905D02*
X146335738Y-68649905D01*
X146640500Y-68649905D01*
X146716691Y-68688000D01*
X146754786Y-68726095D01*
X146792881Y-68802286D01*
X146792881Y-68916571D01*
X146754786Y-68992762D01*
X146716691Y-69030857D01*
X146640500Y-69068952D01*
X146335738Y-69068952D01*
X133275605Y-71247000D02*
G75*
G03X133275605Y-71247000I-179605J0D01*
G01*
X133455210Y-71247000D02*
G75*
G03X133455210Y-71247000I-359210J0D01*
G01*
X133026119Y-69183214D02*
X132988024Y-69221310D01*
X132873738Y-69259405D01*
X132797548Y-69259405D01*
X132683262Y-69221310D01*
X132607071Y-69145119D01*
X132568976Y-69068929D01*
X132530881Y-68916548D01*
X132530881Y-68802262D01*
X132568976Y-68649881D01*
X132607071Y-68573690D01*
X132683262Y-68497500D01*
X132797548Y-68459405D01*
X132873738Y-68459405D01*
X132988024Y-68497500D01*
X133026119Y-68535595D01*
D12*
X139144476Y-84830714D02*
X139049238Y-85009286D01*
X139049238Y-85390238D01*
X139144476Y-85592619D01*
X139334952Y-85711666D01*
X139430190Y-85723571D01*
X139620667Y-85652142D01*
X139715905Y-85473571D01*
X139715905Y-85187857D01*
X139811143Y-85009285D01*
X140001619Y-84937856D01*
X140096857Y-84949761D01*
X140287333Y-85068809D01*
X140382571Y-85271190D01*
X140382571Y-85556904D01*
X140287333Y-85735476D01*
X140382571Y-87556904D02*
X138763524Y-87354523D01*
X138573048Y-87235476D01*
X138477810Y-87128333D01*
X138382571Y-86925952D01*
X138382571Y-86640238D01*
X138477810Y-86461666D01*
X139144476Y-87402143D02*
X139049238Y-87199762D01*
X139049238Y-86818810D01*
X139144476Y-86640239D01*
X139239714Y-86556904D01*
X139430190Y-86485476D01*
X140001619Y-86556904D01*
X140192095Y-86675952D01*
X140287333Y-86783096D01*
X140382571Y-86985476D01*
X140382571Y-87366428D01*
X140287333Y-87545000D01*
X139049238Y-88342619D02*
X140382571Y-88509285D01*
X140001619Y-88461666D02*
X140192095Y-88580715D01*
X140287333Y-88687858D01*
X140382571Y-88890238D01*
X140382571Y-89080714D01*
X139144476Y-90354524D02*
X139049238Y-90152143D01*
X139049238Y-89771191D01*
X139144476Y-89592619D01*
X139334952Y-89521190D01*
X140096857Y-89616428D01*
X140287333Y-89735476D01*
X140382571Y-89937857D01*
X140382571Y-90318809D01*
X140287333Y-90497381D01*
X140096857Y-90568809D01*
X139906381Y-90545000D01*
X139715905Y-89568809D01*
X140382571Y-92318809D02*
X138763524Y-92116428D01*
X138573048Y-91997381D01*
X138477810Y-91890238D01*
X138382571Y-91687857D01*
X138382571Y-91402143D01*
X138477810Y-91223571D01*
X139144476Y-92164048D02*
X139049238Y-91961667D01*
X139049238Y-91580715D01*
X139144476Y-91402144D01*
X139239714Y-91318809D01*
X139430190Y-91247381D01*
X140001619Y-91318809D01*
X140192095Y-91437857D01*
X140287333Y-91545001D01*
X140382571Y-91747381D01*
X140382571Y-92128333D01*
X140287333Y-92306905D01*
X139239714Y-93128333D02*
X139144476Y-93211668D01*
X139049238Y-93104524D01*
X139144476Y-93021191D01*
X139239714Y-93128333D01*
X139049238Y-93104524D01*
X140382571Y-93937857D02*
X140382571Y-94699762D01*
X139049238Y-94056905D02*
X140763524Y-94271191D01*
X140954000Y-94390239D01*
X141049238Y-94592620D01*
X141049238Y-94783096D01*
X139049238Y-95199762D02*
X140382571Y-95366428D01*
X141049238Y-95449762D02*
X140954000Y-95342619D01*
X140858762Y-95425952D01*
X140954000Y-95533096D01*
X141049238Y-95449762D01*
X140858762Y-95425952D01*
D13*
X136025000Y-71365000D02*
X136025000Y-72635000D01*
X143375000Y-71365000D02*
X143375000Y-72635000D01*
X143375000Y-108975000D02*
X143375000Y-107705000D01*
X136025000Y-108975000D02*
X136025000Y-107705000D01*
X136025000Y-71365000D02*
X143375000Y-71365000D01*
X136025000Y-108975000D02*
X143375000Y-108975000D01*
X136025000Y-72635000D02*
X135090000Y-72635000D01*
X137529000Y-70211000D02*
X133529000Y-70211000D01*
X137529000Y-67711000D02*
X133529000Y-67711000D01*
X134366000Y-74930000D02*
X134366000Y-107950000D01*
X134366000Y-107950000D02*
X131826000Y-107950000D01*
X131826000Y-107950000D02*
X131826000Y-74930000D01*
X131546000Y-72110000D02*
X131546000Y-73660000D01*
X131826000Y-74930000D02*
X134366000Y-74930000D01*
X134646000Y-73660000D02*
X134646000Y-72110000D01*
X134646000Y-72110000D02*
X131546000Y-72110000D01*
X145034000Y-105410000D02*
X145034000Y-72390000D01*
X145034000Y-72390000D02*
X147574000Y-72390000D01*
X147574000Y-72390000D02*
X147574000Y-105410000D01*
X147854000Y-108230000D02*
X147854000Y-106680000D01*
X147574000Y-105410000D02*
X145034000Y-105410000D01*
X144754000Y-106680000D02*
X144754000Y-108230000D01*
X144754000Y-108230000D02*
X147854000Y-108230000D01*
X149860000Y-120120000D02*
X129540000Y-120120000D01*
X149320000Y-119570000D02*
X130100000Y-119570000D01*
X149860000Y-111020000D02*
X129540000Y-111020000D01*
X149320000Y-111570000D02*
X141950000Y-111570000D01*
X137450000Y-111570000D02*
X130100000Y-111570000D01*
X141950000Y-111570000D02*
X141950000Y-111020000D01*
X137450000Y-111570000D02*
X137450000Y-111020000D01*
X149860000Y-120120000D02*
X149860000Y-111020000D01*
X149320000Y-119570000D02*
X149320000Y-111570000D01*
X129540000Y-120120000D02*
X129540000Y-111020000D01*
X130100000Y-119570000D02*
X130100000Y-111570000D01*
X149860000Y-120120000D02*
X149320000Y-119570000D01*
X129540000Y-120120000D02*
X130100000Y-119570000D01*
X149860000Y-111020000D02*
X149320000Y-111570000D01*
X129540000Y-111020000D02*
X130100000Y-111570000D01*
X139674000Y-70638000D02*
X141224000Y-70638000D01*
X145034000Y-70358000D02*
X142494000Y-70358000D01*
X142494000Y-70358000D02*
X142494000Y-67818000D01*
X141224000Y-67538000D02*
X139674000Y-67538000D01*
X139674000Y-67538000D02*
X139674000Y-70638000D01*
X142494000Y-67818000D02*
X145034000Y-67818000D01*
X145034000Y-67818000D02*
X145034000Y-70358000D01*
M02*
