M48
;DRILL file {KiCad 4.0.2+e4-6225~38~ubuntu15.10.1-stable} date Thu 05 May 2016 10:58:21 PM EEST
;FORMAT={-:-/ absolute / inch / decimal}
FMAT,2
INCH,TZ
T1C0.013
T2C0.028
T3C0.031
T4C0.040
%
G90
G05
M72
T1
X5.42Y-4.36
X5.46Y-3.9
X5.5Y-3.62
T2
X5.2866Y-2.715
X5.385Y-2.715
T3
X5.35Y-2.9
X5.35Y-3.
X5.35Y-3.1
X5.35Y-3.2
X5.35Y-3.3
X5.35Y-3.4
X5.35Y-3.5
X5.35Y-3.6
X5.35Y-3.7
X5.35Y-3.8
X5.35Y-3.9
X5.35Y-4.
X5.35Y-4.1
X5.35Y-4.2
X5.65Y-2.9
X5.65Y-3.
X5.65Y-3.1
X5.65Y-3.2
X5.65Y-3.3
X5.65Y-3.4
X5.65Y-3.5
X5.65Y-3.6
X5.65Y-3.7
X5.65Y-3.8
X5.65Y-3.9
X5.65Y-4.
X5.65Y-4.1
X5.65Y-4.2
T4
X5.24Y-2.9
X5.24Y-3.
X5.24Y-3.1
X5.24Y-3.2
X5.24Y-3.3
X5.24Y-3.4
X5.24Y-3.5
X5.24Y-3.6
X5.24Y-3.7
X5.24Y-3.8
X5.24Y-3.9
X5.24Y-4.
X5.24Y-4.1
X5.24Y-4.2
X5.3Y-4.5
X5.3Y-4.6
X5.4Y-4.5
X5.4Y-4.6
X5.5Y-4.5
X5.5Y-4.6
X5.56Y-2.72
X5.6Y-4.5
X5.6Y-4.6
X5.66Y-2.72
X5.7Y-4.5
X5.7Y-4.6
X5.76Y-2.9
X5.76Y-3.
X5.76Y-3.1
X5.76Y-3.2
X5.76Y-3.3
X5.76Y-3.4
X5.76Y-3.5
X5.76Y-3.6
X5.76Y-3.7
X5.76Y-3.8
X5.76Y-3.9
X5.76Y-4.
X5.76Y-4.1
X5.76Y-4.2
T0
M30
